<svg width="92" height="28" viewBox="0 0 92 28" fill="none" xmlns="http://www.w3.org/2000/svg">
<path d="M30.2 3.7C31.5 3.7 32.2 3.8 32.5 4C32.6 4.1 32.6 4.2 32.6 4.3C32.6 4.4 32.6 4.4 32.6 4.5C32.6 4.6 32.6 4.6 32.6 4.6C31.4 5.1 30.5 5.3 30 5.3C29.9 5.3 29.9 5.3 29.7 5.3C29.6 5.3 29.5 5.3 29.4 5.3C29.3 5.3 29.2 5.3 29.1 5.3C29 5.3 28.9 5.3 28.8 5.3C28.5 5.3 28.3 5.3 28.2 5.4C28.1 5.5 28 5.5 27.9 5.5C27.8 5.5 27.8 5.5 27.8 5.6C27.8 5.6 27.3 5.6 26.5 5.6C26.3 5.6 26.1 5.6 25.9 5.7L25.8 5.8C25.7 5.8 25.7 5.9 25.6 5.9C25.5 6 25.5 6.2 25.4 6.3C25.3 6.4 25.3 6.6 25.2 6.7C25.1 6.8 25.1 6.9 25 7.1C24.9 7.3 24.9 7.4 24.8 7.5C24.6 8 24.4 8.6 24.4 9C24.3 9.4 24.2 10 24.1 10.8C24.1 11 24 11.3 23.9 11.6C23.7 11.8 23.6 12 23.4 12.4C23.4 12.6 23.3 12.8 23.3 13.1V13.2C23.3 13.2 23.3 13.3 23.2 13.4C23.2 13.5 23.1 13.5 23.1 13.6C23.1 13.7 23 13.7 23 13.8C22.8 14.1 22.7 14.3 22.7 14.4V14.6C22.7 14.6 22.7 14.7 22.7 14.8C22.7 14.8 22.7 14.9 22.7 15C22.7 15.1 22.7 15.2 22.6 15.3C22.6 15.3 22.5 15.4 22.4 15.6C22.3 15.7 22.2 15.8 22.2 15.9L22.1 16V16.1C22.1 16.2 22.1 16.2 22.1 16.3C22.1 16.4 22.1 16.4 22 16.5C22 16.6 21.9 16.8 21.9 17C21.9 17.1 21.8 17.2 21.7 17.4C21.7 17.5 21.6 17.5 21.6 17.6C21.6 17.7 21.5 17.7 21.4 17.8C21.3 17.9 21.2 18 21.1 18.1C21 18.2 21 18.3 20.9 18.3C20.9 18.4 20.8 18.4 20.8 18.4C20.8 18.4 20.8 18.5 20.7 18.5C20.6 18.7 20.5 19 20.3 19.2C20.1 19.5 19.9 19.8 19.7 20.1C19.6 20.1 19.6 20.2 19.5 20.2C19.4 20.3 19.4 20.3 19.3 20.4C19.2 20.5 19.1 20.5 19.1 20.6C19.1 20.7 18.9 20.7 18.8 20.8L18.7 20.9C18.7 21 18.6 21 18.6 21.1C18.6 21.2 18.5 21.3 18.5 21.3C18.4 21.4 18.4 21.5 18.3 21.5C17.9 22 17.2 22.5 16.2 23C16 23.1 15.8 23.2 15.6 23.3C15.4 23.4 15.2 23.5 15 23.6C14.8 23.7 14.6 23.8 14.4 23.9C14.2 24 14 24.1 13.8 24.2C13.6 24.4 13.3 24.5 12.9 24.8C12.6 24.8 12.3 24.9 11.7 25C11.7 25 11.6 25 11.6 25.1C11.5 25.1 11.5 25.2 11.4 25.2C11.2 25.3 11.1 25.3 11.1 25.3H10.9C10.8 25.3 10.5 25.4 10.1 25.6C9.9 25.7 9.7 25.8 9.5 25.8C9.4 25.9 9.3 25.9 9.2 25.9C9 25.9 8.9 26 8.7 26C8.5 26 8.3 26.1 8.1 26.1C7.7 26.1 7.4 26.2 7 26.2C6.1 26.2 5.5 26.1 5 26C4.9 26 4.8 25.9 4.7 25.8C4.5 25.7 4.3 25.6 4.1 25.5C3.6 25.3 3.3 25.1 3.3 25C3.1 24.6 3 24 3 23.1C3 23 3 22.9 3 22.7C3 22.6 3 22.5 3 22.4C3 22.2 3 22 3.1 21.8C3.2 21.3 3.3 20.9 3.5 20.6C3.6 20.5 3.6 20.4 3.7 20.3C3.8 20.2 3.8 20.1 3.9 20C4 20 4 19.9 4.1 19.8C4.2 19.7 4.2 19.6 4.3 19.5C4.3 19.4 4.4 19.2 4.6 19.1C4.6 19.1 4.7 19.1 4.8 19.1C4.9 19.1 5 19.1 5.1 19C5.1 19.1 5.1 19.1 5.2 19.2C5.2 19.3 5.3 19.4 5.2 19.5C5.2 19.6 5.1 19.8 4.9 20C4.9 20.1 4.8 20.1 4.8 20.2C4.8 20.3 4.7 20.3 4.7 20.3C4.6 20.4 4.6 20.4 4.6 20.5C4.6 20.6 4.5 20.7 4.5 20.8C4.5 20.9 4.4 21 4.4 21.2C4.4 21.3 4.3 21.5 4.3 21.6C4.3 21.8 4.2 21.9 4.2 22.1C4.2 22.3 4.1 22.5 4.1 22.7C4.1 22.8 4.1 22.9 4.1 23C4.1 23.1 4.1 23.2 4.1 23.3C4.1 23.9 4.3 24.3 4.7 24.6C5 24.8 5.6 25 6.6 25.1C7 25.1 7.5 25.2 7.9 25.2C9.3 25.2 10.6 25 11.8 24.5C11.9 24.5 11.9 24.4 12 24.4L12.1 24.3C12.1 24.3 12.2 24.3 12.2 24.2C12.3 24.2 12.5 24.1 12.6 24.1C12.7 24.1 12.9 24 13.1 23.9C13.3 23.8 13.5 23.8 13.7 23.7C13.9 23.6 14.1 23.5 14.3 23.4C14.4 23.3 14.5 23.2 14.6 23.1C14.7 23 14.8 22.9 15 22.8C15.2 22.7 15.5 22.6 15.8 22.4C15.9 22.3 16.1 22.2 16.2 22.1C16.3 22 16.5 21.9 16.7 21.7C16.7 21.6 16.8 21.5 16.8 21.5C16.9 21.4 16.9 21.3 17 21.2C17.1 21 17.3 20.8 17.5 20.5L17.6 20.4C17.7 20.4 17.7 20.3 17.8 20.3C17.9 20.3 17.9 20.2 18 20.2C18.1 20.1 18.1 20.1 18.2 20C18.4 19.8 18.5 19.5 18.6 19C18.7 18.7 18.7 18.5 18.8 18.3C18.8 18.1 18.9 18 19 17.9C19 17.8 19.1 17.7 19.2 17.6C19.2 17.5 19.3 17.5 19.4 17.4C19.5 17.3 19.5 17.2 19.6 17.2C19.8 17 20 16.7 20 16.4C20 16.4 20 16.3 20 16.1C20 16 20 16 20 15.9C20 15.8 20 15.8 20 15.7C20 15.5 20.1 15.4 20.3 15.1C20.4 14.9 20.5 14.7 20.5 14.6C20.5 14.6 20.5 14.5 20.5 14.3V14.2C20.5 14.1 20.5 14.1 20.5 14C20.5 13.9 20.6 13.8 20.6 13.7C20.7 13.6 20.7 13.5 20.8 13.4C21 13.1 21.1 12.9 21.1 12.7V12.6C21.1 12.5 21.1 12.5 21.1 12.4C21.1 12.3 21.1 12.1 21.2 11.9C21.2 11.8 21.3 11.7 21.3 11.6C21.3 11.5 21.4 11.5 21.4 11.4C21.4 11.3 21.5 11.3 21.5 11.2C21.5 11.1 21.6 11.1 21.6 11C21.6 10.9 21.7 10.9 21.7 10.8C21.8 10.7 21.8 10.6 21.8 10.4C21.8 10.2 21.8 10.1 21.8 9.8C21.8 9.6 21.8 9.3 21.9 9C21.9 8.8 22 8.7 22 8.4C22.1 8.2 22.2 7.9 22.3 7.6C22.4 7.3 22.6 7.1 22.6 6.8C22.6 6.7 22.7 6.6 22.7 6.5C22.7 6.4 22.8 6.3 22.8 6.3L22.7 6.2C22.7 6.2 23 6.2 22.9 6.1C22.9 6 22.7 6 22.3 6C22.3 6 22.2 6 22.1 6C22 6 22 6 21.9 6C21.7 6 21.6 6.1 21.4 6.1C21.2 6.1 21.1 6.2 20.9 6.2C20.8 6.2 20.7 6.2 20.7 6.2C20.6 6.2 20.6 6.2 20.5 6.2C20.3 6.2 20.1 6.1 19.9 6C19.7 5.9 19.5 5.8 19.3 5.8C19.2 5.8 19 5.8 18.7 5.9C18.6 5.9 18.5 5.9 18.4 5.9C18.3 5.9 18.2 5.9 18.1 5.9H17.1C16.9 5.9 16.7 5.9 16.3 5.8C15.9 5.7 15.7 5.7 15.5 5.7C15.4 5.7 15.2 5.7 15 5.8C14.7 5.9 14.6 6 14.5 6C14.5 6 14.4 6 14.3 6C14.2 6 14.2 6 14.1 6C14 6 13.9 6 13.8 6C13.7 6 13.7 6 13.6 6C13 6 12.6 6.1 12.3 6.5C12.2 6.6 12.2 6.7 12.1 6.8C12.1 6.8 12.1 6.9 12 7C12 7.1 11.9 7.2 11.8 7.3C11.8 7.4 11.7 7.5 11.7 7.6C11.5 7.9 11.2 8.2 10.8 8.5C10.3 9 10 9.2 9.7 9.2H9.6C9.2 9.2 9.1 9.2 9.1 9.2V8.8C9.2 8.3 9.3 7.9 9.6 7.8C9.8 7.7 10 7.6 10.1 7.5C10.3 7.4 10.4 7.3 10.6 7.1C10.7 7 10.8 7 10.9 6.9C11 6.8 11.1 6.6 11.2 6.5C11.3 6.4 11.5 6.3 11.6 6.2C11.7 6.1 11.9 5.9 12.1 5.8C12.3 5.7 12.7 5.6 13.3 5.4C13.4 5.3 13.5 5.3 13.6 5.2C13.7 5.1 13.8 5.1 13.9 5C14 5 14.1 4.9 14.3 4.8C14.4 4.7 14.6 4.7 14.7 4.6C15.1 4.5 15.7 4.4 16.4 4.3C16.7 4.3 17.1 4.2 17.5 4.2C17.9 4.2 18.3 4.2 18.8 4.2C19 4.2 19.1 4.2 19.3 4.2C19.5 4.2 19.6 4.2 19.8 4.2C20 4.2 20.1 4.2 20.3 4.2C20.5 4.2 20.7 4.2 20.9 4.2C21 4.2 21 4.2 21.2 4.2C21.3 4.2 21.4 4.2 21.6 4.2C21.8 4.2 21.9 4.2 22.1 4.3C22.3 4.3 22.5 4.4 22.7 4.4C23.1 4.5 23.4 4.5 23.7 4.5C23.9 4.5 24 4.5 24.1 4.5C24.2 4.5 24.3 4.5 24.5 4.5C25 4.5 25.3 4.5 25.6 4.4C25.8 4.2 26.2 4.2 26.6 4.2C26.9 4.2 27 4.2 27.2 4.1C27.4 3.9 27.5 3.9 27.6 3.8C28.1 3.8 29 3.7 30.2 3.7Z" fill="black"/>
<path d="M26.8 13.6C26.9 13.6 27.1 13.7 27.3 13.9H27.4C27.4 13.9 27.5 14 27.5 14.1C27.5 14.2 27.6 14.3 27.6 14.3C27.6 14.5 27.6 14.7 27.5 15L27.4 15.3C27.4 15.4 27.4 15.4 27.4 15.5C27.4 15.6 27.4 15.6 27.4 15.7C27.4 15.9 27.4 16 27.4 16.1L27.5 16.4C27.6 16.4 27.6 16.4 27.7 16.4H27.8L28.1 16.3V16.6C28.1 16.7 28.1 16.7 28.1 16.8C28.1 16.9 28.1 16.9 28.1 16.9C28 17.2 27.9 17.4 27.8 17.5C27.6 17.5 27.3 17.7 27.1 18H27C26.9 18.1 26.8 18.3 26.7 18.4H26.5C26.4 18.5 26.2 18.5 26 18.6C25.9 18.6 25.8 18.7 25.7 18.7C25.6 18.7 25.5 18.8 25.3 18.8C25 18.9 24.8 19 24.6 19C24.4 19.1 24.3 19.1 24.2 19.2L24.1 19.3C24 19.3 24 19.4 23.9 19.5C23.8 19.6 23.7 19.6 23.7 19.7C23.6 19.8 23.5 19.8 23.4 19.9C23.2 20.2 23.1 20.6 23 21.1V21.2C23.3 21.4 23.5 21.5 23.6 21.5C23.9 21.5 24.3 21.3 25 20.9C25.6 20.5 26 20.1 26 19.9C26 19.8 26 19.6 26 19.5C26 19.2 26.4 19.1 27.2 19.1C27.5 19.1 27.7 19.2 27.6 19.4C27.6 19.5 27.5 19.7 27.4 19.8C27.3 19.9 27.3 19.9 27.2 20C27.1 20 27.1 20.1 27 20.1C27 20.2 26.9 20.2 26.9 20.3C26.9 20.4 26.8 20.4 26.8 20.5C26.7 20.7 26.6 20.9 26.5 21.2C26.4 21.2 26.4 21.2 26.3 21.2H25.9L25 21.7L24.8 21.9C24.7 21.9 24.6 22 24.5 22C24.4 22.1 24.3 22.1 24.1 22.2C24 22.2 24 22.3 23.9 22.3C23.8 22.3 23.8 22.4 23.7 22.4C23.6 22.4 23.6 22.5 23.5 22.5C23.4 22.5 23.4 22.6 23.3 22.7C23.1 22.8 22.7 22.9 22.3 22.9C21.5 22.9 21.1 22.7 21.1 22.2C21.1 22.1 21.1 22 21.1 21.9C21.3 21.5 21.4 21.2 21.6 20.8C21.8 20.4 22 20 22.1 19.6V19C22.1 18.9 22.3 18.6 22.6 18.2C22.9 17.8 23.1 17.5 23.1 17.3C23.1 17.2 23.1 17.2 23.2 17.1L23.6 16.7C23.6 16.7 23.7 16.6 23.7 16.4C23.7 16.3 23.8 16.2 23.9 16.1C24 16 24 16 24.1 16C24.2 16 24.2 15.9 24.2 15.9C24.2 15.8 24.4 15.6 24.5 15.3C24.5 15.3 24.6 15.2 24.7 15.2L24.8 15.1C24.8 15.1 24.9 15.1 24.9 15C25 14.9 25.1 14.9 25.2 14.8C25.3 14.7 25.3 14.7 25.4 14.7C25.4 14.7 25.5 14.6 25.5 14.5L25.6 14.4C25.6 14.3 25.7 14.3 25.7 14.2C25.8 14.1 26 14 26.2 13.8C26.5 13.7 26.7 13.6 26.8 13.6ZM24.6 17.2C24.5 17.7 24.6 17.9 25 17.9C25.3 17.9 25.5 17.9 25.4 17.9L25.9 17.4C26 17.3 26.1 17.1 26.2 16.9C26.2 16.7 26.2 16.5 26.1 16.3C26 16.1 25.8 16 25.6 16C25 16.1 24.7 16.5 24.6 17.2Z" fill="black"/>
<path d="M33.2 13.5C33.3 13.5 33.4 13.6 33.5 13.7C33.6 13.9 33.6 14 33.6 14.1C33.6 14.3 33.5 14.5 33.4 14.6C33.3 14.7 33.2 14.8 33.2 15C33.2 15.3 33.4 15.5 33.7 15.5C33.9 15.5 34.1 15.4 34.3 15.1C34.5 14.8 34.7 14.6 35 14.6C35.5 14.6 35.9 14.9 36.2 15.5C36.2 15.5 36.3 15.5 36.7 15.5C36.8 15.5 36.9 15.5 36.9 15.6C36.9 15.6 36.9 15.7 37 15.7C36.7 16.3 36.4 16.6 36.1 16.6C36 16.5 35.8 16.4 35.5 16.2C35.2 16 35 16 34.8 16C34.5 16 34.2 16.2 33.9 16.6C33.8 16.7 33.7 16.8 33.6 17C33.5 17.1 33.5 17.2 33.4 17.3C33.3 17.5 33.2 17.6 33.1 17.6C33.1 17.7 33 17.9 33 18.2C33 18.2 32.9 18.3 32.9 18.4C32.9 18.5 32.8 18.5 32.8 18.6C32.7 18.7 32.7 18.9 32.6 19C32.6 19 32.6 19.1 32.5 19.1C32.4 19.1 32.4 19.2 32.4 19.2L32.1 19.5L32 19.4L31.8 19.6C31.8 19.7 31.8 19.8 31.7 19.9C31.6 20 31.6 20.1 31.6 20.2L31.4 20.4C31.3 20.5 31.2 20.6 31.2 20.6V20.7L31.1 20.8C31 20.9 31 21 30.9 21.1C30.9 21.1 30.9 21.1 30.8 21.2C30.8 21.2 30.7 21.3 30.6 21.4C30.5 21.5 30.5 21.6 30.4 21.7C30.3 21.8 30.2 21.9 30.1 22.1C29.7 22.5 29.4 22.8 29.2 22.8C29 22.5 28.9 22.3 28.9 22C28.9 21.7 29 21.4 29.1 21.3C29.2 21.2 29.2 21.2 29.3 21.1C29.4 21 29.4 21 29.5 21L29.6 20.9C29.6 20.9 29.6 20.9 29.6 20.8C29.6 20.7 29.6 20.7 29.7 20.6C29.7 20.5 29.8 20.4 30 20.3C30 20.3 30 20.2 30.1 20C30.1 19.9 30.1 19.9 30.1 19.8C30.1 19.7 30.1 19.6 30.1 19.6V19.5C30.1 19.5 30.1 19.4 30.2 19.3C30.2 19.2 30.3 19.2 30.3 19.1C30.3 19 30.4 18.9 30.5 18.8C30.7 18.5 30.8 18.2 30.8 17.9C30.8 17.7 30.9 17.5 31.1 17.3C31.3 17.1 31.4 16.9 31.4 16.7C31.4 16.4 31.2 16.3 31 16.3H30.8V16.4C30.6 16.5 30.5 16.6 30.4 16.8C30.3 16.9 30.3 17 30.2 17.1C30.1 17.1 30 17.1 30 17.2C29.9 17.2 29.8 17.3 29.7 17.3C29.5 17.4 29.3 17.6 29.2 17.9C29.1 18.1 29.1 18.2 29 18.3C29 18.4 28.9 18.5 28.9 18.5C28.7 18.6 28.5 18.7 28.3 18.8C28.1 19.1 27.9 19.3 27.6 19.6H27.4L27.2 19.4C27.3 19.3 27.3 19.3 27.2 19.2C27.3 19.1 27.4 19.1 27.4 19C27.5 18.9 27.6 18.8 27.7 18.7C27.8 18.6 27.9 18.5 28 18.4C28.1 18.3 28.2 18.2 28.3 18L28.4 17.9C28.4 17.8 28.5 17.8 28.5 17.7C28.5 17.6 28.6 17.6 28.6 17.5C28.6 17.4 28.7 17.4 28.8 17.3C28.9 17.2 29.1 17.1 29.4 16.8C29.4 16.7 29.5 16.7 29.5 16.6V16.4C29.5 16.4 29.6 16.3 29.8 16.2L29.9 16.1C29.9 16.1 30 16 30.1 16C30.1 15.9 30.2 15.8 30.4 15.5C31 14.9 31.5 14.6 31.9 14.5C32 14.4 32.1 14.3 32.1 14.2C32.2 14.1 32.3 14 32.4 13.8L33.2 13.5Z" fill="black"/>
<path d="M40.6 13.5C40.7 13.5 40.8 13.6 40.9 13.7C41 13.9 41 14 41 14.1C41 14.3 40.9 14.5 40.8 14.6C40.7 14.7 40.6 14.8 40.6 15C40.6 15.3 40.8 15.5 41.1 15.5C41.3 15.5 41.5 15.4 41.7 15.1C41.9 14.8 42.1 14.6 42.4 14.6C42.9 14.6 43.3 14.9 43.6 15.5C43.6 15.5 43.7 15.5 44.1 15.5C44.2 15.5 44.3 15.5 44.3 15.6C44.3 15.6 44.3 15.7 44.4 15.7C44.1 16.3 43.8 16.6 43.5 16.6C43.4 16.5 43.2 16.4 42.9 16.2C42.6 16 42.4 16 42.2 16C41.9 16 41.6 16.2 41.3 16.6C41.2 16.7 41.1 16.8 41 17C40.9 17.1 40.9 17.2 40.8 17.3C40.7 17.5 40.6 17.6 40.5 17.6C40.5 17.7 40.4 17.9 40.4 18.2C40.4 18.2 40.3 18.3 40.3 18.4C40.3 18.5 40.2 18.5 40.2 18.6C40.1 18.7 40.1 18.9 40 19C40 19 40 19.1 39.9 19.1C39.8 19.1 39.8 19.2 39.8 19.2L39 20C39 20.1 39 20.2 38.9 20.3C38.8 20.4 38.8 20.5 38.8 20.6L38.6 20.8C38.5 20.9 38.4 21 38.4 21V21.1L38.3 21.2C38.2 21.3 38.2 21.3 38.1 21.4C38.1 21.4 38.1 21.4 38 21.5C38 21.5 37.9 21.6 37.8 21.7C37.7 21.8 37.7 21.9 37.6 22C37.5 22.1 37.4 22.2 37.3 22.4C36.9 22.8 36.6 23.1 36.4 23.1C36.2 22.8 36.1 22.6 36.1 22.3C36.1 22 36.2 21.7 36.3 21.6C36.4 21.5 36.4 21.5 36.5 21.4C36.6 21.3 36.6 21.3 36.7 21.3L36.8 21.2C36.8 21.2 36.8 21.2 36.8 21.1C36.8 21 36.8 21 36.9 20.9C36.9 20.8 37 20.7 37.2 20.6C37.2 20.6 37.2 20.5 37.3 20.3C37.3 20.2 37.3 20.2 37.3 20.1C37.3 20 37.3 19.9 37.3 19.9V19.8C37.3 19.8 37.3 19.7 37.4 19.6C37.4 19.5 37.5 19.5 37.5 19.4C37.5 19.3 37.6 19.2 37.7 19.1C37.9 18.8 38 18.5 38 18.2C38 18 38.1 17.8 38.3 17.6C38.5 17.4 38.6 17.2 38.6 17C38.6 16.7 38.4 16.6 38.2 16.6H38V16.7C37.8 16.8 37.7 16.9 37.6 17.1C37.5 17.2 37.5 17.3 37.4 17.4C37.3 17.4 37.2 17.4 37.2 17.5C37.1 17.5 37 17.6 36.9 17.6C36.7 17.7 36.5 17.9 36.4 18.2C36.3 18.4 36.3 18.5 36.2 18.6C36.2 18.7 36.1 18.8 36.1 18.8C35.9 18.9 35.7 19 35.5 19.1C35.3 19.4 35.1 19.6 34.8 19.9H34.6L34.4 19.7C34.5 19.6 34.5 19.6 34.4 19.5C34.5 19.4 34.6 19.4 34.6 19.3C34.7 19.2 34.8 19.1 34.9 19C35 18.9 35.1 18.8 35.2 18.7C35.3 18.6 35.4 18.5 35.5 18.3L35.6 18.2C35.6 18.1 35.7 18.1 35.7 18C35.7 17.9 35.8 17.9 35.8 17.8C35.8 17.7 35.9 17.7 36 17.6C36.1 17.5 36.3 17.4 36.6 17.1C36.6 17 36.7 17 36.7 16.9V16.7C36.7 16.7 36.8 16.6 37 16.5L37.1 16.4C37.1 16.4 37.2 16.3 37.3 16.3C37.3 16.2 37.4 16.1 37.6 15.8C38.2 15.2 38.7 14.9 39.1 14.8C39.2 14.7 39.3 14.6 39.3 14.5C39.4 14.4 39.5 14.3 39.6 14.1L40.6 13.5Z" fill="black"/>
<path d="M49.1 13.7C49.2 13.7 49.3 13.8 49.3 13.8C49.4 13.8 49.4 13.8 49.5 13.8C49.6 13.8 49.7 13.9 49.7 13.9C49.7 13.9 49.8 14 49.8 14.1C49.8 14.1 49.8 14.2 49.8 14.3C49.8 14.4 49.8 14.4 49.8 14.5C49.8 15 49.8 15.3 49.7 15.4C49.6 15.5 49.6 15.5 49.6 15.6C49.6 15.7 49.5 15.7 49.5 15.8L49.4 15.9V16C49.4 16.2 49.4 16.5 49.2 16.7C49.1 16.9 48.9 17.2 48.7 17.3V17.4C48.7 17.4 48.7 17.5 48.6 17.6C48.6 17.7 48.5 17.8 48.5 17.9C48.5 17.9 48.5 17.9 48.4 18C48.3 18.1 48.3 18.1 48.1 18.2C48 18.3 47.9 18.4 47.9 18.5V18.7C47.9 18.8 48 18.9 48 18.9C48 19 48 19.1 47.9 19.2V19.3C47.9 19.3 47.9 19.4 47.8 19.5C47.7 19.6 47.7 19.6 47.7 19.7C47.7 19.7 47.7 19.8 47.7 19.9C47.7 20 47.7 20 47.7 20V20.1C47.7 20.3 47.8 20.5 48 20.7C48.2 20.9 48.4 21 48.6 21C48.7 21 48.8 21 48.9 20.9C49 20.9 49 20.8 49 20.8H49.1C49.1 20.8 49.2 20.9 49.4 21.1C49.4 21.2 49.4 21.4 49.3 21.7C49.3 21.8 49.2 21.8 49 21.9C48.9 21.9 48.9 22 48.8 22C48.7 22 48.7 22 48.7 22C48.7 22 48.7 22.1 48.6 22.1C48.5 22.1 48.5 22.2 48.5 22.3C48.4 22.4 48.3 22.5 48.2 22.5C47.9 22.7 47.6 22.8 47.2 22.8C46.9 22.8 46.6 22.7 46.3 22.5C46 22.3 45.8 22.2 45.6 22.2C45.3 22.2 44.8 22.3 44.2 22.5L44.1 22.6H43.9C42.9 22.7 42.3 22.3 42.2 21.6C42.3 21.5 42.3 21.2 42.4 20.8C42.4 20.6 42.4 20.4 42.6 20.2C42.8 19.9 42.9 19.7 42.9 19.7C42.9 19.6 42.9 19.5 43 19.4C43.1 19.3 43.1 19.2 43.1 19C43.1 18.9 43.2 18.7 43.2 18.6C43.2 18.5 43.3 18.3 43.4 18.1L43.7 17.8C43.7 17.7 43.8 17.7 43.8 17.6C43.8 17.6 43.8 17.5 43.9 17.4V17.2C43.9 17.2 44 17.1 44.1 17L44.4 16.7C44.4 16.7 44.5 16.7 44.5 16.6C44.6 16.6 44.6 16.5 44.6 16.5C44.8 16.2 45 15.8 45.4 15.5C45.8 15.1 46.2 14.9 46.5 14.9C46.5 14.9 46.7 14.9 47 14.8C47.3 14.7 47.4 14.7 47.5 14.7C47.6 14.6 47.7 14.6 47.8 14.5C47.9 14.4 48 14.3 48.1 14.3C48.6 14.2 48.8 14 49.1 13.7ZM44.7 19.4V19.6C44.6 19.6 44.6 19.7 44.5 19.7C44.4 19.7 44.4 19.8 44.3 19.9C44.2 20 44.1 20.2 44 20.3C43.9 20.4 43.9 20.5 43.9 20.5C43.9 20.6 43.8 20.7 43.8 20.7C43.8 20.9 43.7 21 43.8 21.1C43.8 21.1 43.8 21.2 43.9 21.3L44.3 21.7C44.4 21.7 44.5 21.8 44.5 21.8C45 21.8 45.3 21.7 45.4 21.5L45.5 21.4C45.5 21.4 45.5 21.3 45.6 21.3L45.7 21.1C45.8 21.1 45.9 21 45.9 21C46 21 46.1 20.9 46.1 20.9C46.3 20.8 46.4 20.7 46.4 20.5C46.4 20.4 46.5 20.3 46.5 20.2C46.5 20.1 46.5 20.1 46.5 20C46.5 19.9 46.5 19.9 46.5 19.8V19.4C46.5 19.3 46.5 19.2 46.5 19.1C46.5 19.1 46.5 19 46.6 18.9C46.7 18.8 46.8 18.6 46.9 18.4C47 18.1 47.1 17.8 47.1 17.4C47.1 17 46.9 16.8 46.6 16.8C46.3 16.8 45.9 17.2 45.4 17.9C45 18.5 44.7 19 44.7 19.4Z" fill="black"/>
<path d="M66.9 4.5C67 4.5 67 4.6 67.1 4.6C67.2 4.6 67.3 4.7 67.4 4.8V6.4C67.4 6.5 67.3 6.5 67.3 6.6C67.3 6.7 67.2 6.8 67.2 6.9C67.2 7.1 67.2 7.4 67.1 7.8C67.1 8.1 67 8.5 67 9V9.1C67 9.1 67 9.2 66.9 9.2C66.8 9.3 66.8 9.4 66.8 9.5V9.6C66.8 9.6 66.8 9.7 66.8 9.9C66.8 10.1 66.8 10.4 66.6 10.8C66.5 11.2 66.4 11.6 66.4 11.7C66.4 11.8 66.4 11.8 66.4 11.9C66.4 12 66.4 12.1 66.4 12.2C66.4 12.3 66.4 12.5 66.3 12.6L66.2 13C66.2 13.2 66.2 13.3 66.2 13.6C66.2 13.8 66.2 14 66.2 14.3C66.2 14.4 66.2 14.5 66.1 14.6C66.1 14.8 66 15 66 15.2C65.7 16.5 65.6 17.4 65.6 18C65.6 18.2 65.6 18.3 65.7 18.4C65.7 18.5 65.8 18.6 65.8 18.7C65.9 18.7 65.9 18.8 66 18.9H66.2C66.2 18.9 66.2 18.9 66.3 18.9H66.4C66.6 18.9 66.7 18.7 66.9 18.3C66.9 18.2 67 18 67 17.9C67 17.8 67.1 17.6 67.1 17.5C67.3 17.2 67.6 16.7 68 16.1C68 15.9 68.1 15.5 68.3 15.1C68.4 15 68.5 14.8 68.7 14.5C68.7 14.4 68.8 14.3 68.8 14.2C68.9 14.1 68.9 13.9 69 13.7L69.1 13.6C69.1 13.5 69.2 13.5 69.3 13.4C69.3 13.3 69.3 13.1 69.4 12.9C69.5 12.8 69.6 12.7 69.8 12.4C69.8 12.3 69.8 12.2 69.9 12.1C69.9 12 70 11.8 70 11.7C70.1 11.6 70.2 11.5 70.4 11.4C70.5 11.3 70.6 11.3 70.7 11.2C70.8 11.2 70.8 11.1 70.8 11.1C70.9 10.9 71.1 10.7 71.3 10.4C71.4 10.3 71.6 10.1 71.9 9.8C71.9 9.7 71.9 9.6 72 9.4C72 9.2 72.1 9.1 72.1 8.9C72.1 8.8 72.3 8.7 72.4 8.6C72.6 8.5 72.7 8.4 72.8 8.3C72.8 8.2 72.9 7.9 73 7.6C73.4 7 74 6.5 75 6.2C75.1 6.2 75.2 6.4 75.3 6.6C75.3 6.7 75.3 6.9 75.2 7.1C75.2 7.2 75.1 7.3 75.1 7.4C75.1 7.5 75.1 7.5 75.1 7.5V8.1C75.1 8.3 75.1 8.4 75.1 8.5C75 8.6 74.9 8.8 74.8 9.1C74.8 9.3 74.7 9.6 74.6 9.9C74.5 10.2 74.4 10.6 74.3 11C74.2 11.2 74.1 11.3 73.9 11.4C73.7 11.5 73.7 11.5 73.6 11.5C73.5 11.5 73.4 11.4 73.3 11.1C73.3 11 73.2 11 73.2 10.9C73.1 10.8 73.1 10.8 73 10.7C72.8 10.7 72.5 10.8 72.2 11C72.2 11.1 72.1 11.3 72.1 11.6C72 11.7 71.9 11.7 71.8 11.8C71.7 11.9 71.6 12 71.5 12.1C71.5 12.2 71.4 12.3 71.4 12.4C71.4 12.5 71.3 12.7 71.2 12.8C71.1 12.8 71 12.9 70.9 13C70.8 13.2 70.7 13.5 70.6 13.7C70.5 13.9 70.4 14.3 70.2 14.7C70.1 14.8 70 14.9 69.9 15.1C69.8 15.3 69.6 15.5 69.5 15.7C69.5 15.8 69.4 16 69.3 16.2C69.2 16.4 69.1 16.6 69 16.9C68.9 16.9 68.8 17 68.7 17.2C68.7 17.3 68.6 17.5 68.6 17.8C68.5 17.9 68.3 18.1 68 18.4C67.9 18.6 67.8 19 67.5 19.5C67.4 19.6 67.3 19.8 67.1 20C67 20.2 66.8 20.4 66.7 20.7C66.6 20.8 66.6 21 66.5 21.2C66.4 21.4 66.3 21.6 66.3 21.9C66.3 22 66.3 22 66.3 22.1C66.3 22.2 66.3 22.3 66.3 22.4C66.3 22.8 66.2 23.2 65.8 23.5C65.6 23.6 65.5 23.7 65.3 23.9C65.1 24.1 65 24.1 64.8 24.3L64.7 24.5H64.4C64.3 24.3 64.2 24.1 64 23.7C64 23.6 64 23.4 64.1 23.2C64.1 23.1 64.2 23 64.2 22.9C64.2 22.8 64.2 22.8 64.3 22.7C64.3 22.1 64.4 21.2 64.5 20C64.6 19.7 64.7 19.3 64.9 18.7C64.9 18.3 64.9 17.6 64.9 16.7C64.9 16.7 64.9 16.6 65 16.4C65 16.2 65.1 16 65.2 15.7C65.3 15.5 65.3 15.3 65.3 15.1C65.3 14.9 65.3 14.8 65.3 14.6C65.3 14.4 65.2 14.3 65.1 14.2C65 14.1 65 14.1 64.9 14C64.8 14 64.8 13.9 64.7 13.9C64.6 13.9 64.4 13.9 64.3 14C64.2 14.1 64 14.3 63.8 14.7C63.6 15.1 63.4 15.4 63.3 15.5C63.1 15.6 62.9 15.8 62.6 16.1C62.5 16.4 62.3 16.7 62 17.2C61.5 17.7 60.8 18.4 59.8 19.3C59.7 19.4 59.7 19.5 59.5 19.7C59.4 19.8 59.3 20 59.1 20.1C58.8 20.2 58.4 20.4 57.9 20.8C57.8 21 57.7 21.2 57.5 21.4C57.4 21.5 57.2 21.5 57 21.7C56.8 21.9 56.6 21.9 56.3 22.1C56.2 22.2 56.1 22.4 55.9 22.7C55.8 22.7 55.7 22.7 55.6 22.8C55.5 22.8 55.4 22.9 55.2 22.9C55 23.1 54.8 23.2 54.6 23.3C54.4 23.4 54.1 23.6 53.9 23.7H53.7C53.6 23.7 53.4 23.8 53.3 23.9C53.1 24.1 52.9 24.1 52.9 24.2C52.8 24.2 52.6 24.3 52.3 24.3C52 24.5 51.6 24.8 51 25.1C50.7 25.2 50.4 25.2 50 25.2C48.7 25.2 48 24.9 47.9 24.4C47.9 24.3 48 24.1 48.2 23.9C48.5 23.7 48.7 23.5 48.7 23.5C48.7 23.5 48.8 23.3 48.9 23C49 22.8 49.1 22.6 49.3 22.6C49.3 22.6 49.4 22.6 49.5 22.6C49.5 22.6 49.7 22.7 50.3 22.8C50.6 22.9 51.2 22.9 51.9 22.9C52.9 22.9 53.6 22.8 54 22.7C54.2 22.6 54.4 22.4 54.7 22.2C54.9 22.2 55.2 22.1 55.7 21.9C55.8 21.8 55.9 21.7 56.1 21.5C56.2 21.5 56.3 21.4 56.5 21.3C56.7 21.2 56.8 21.1 57.1 21C57.3 20.8 57.5 20.5 57.9 20.2C58 20.2 58 20.1 58.1 20.1C58.2 20.1 58.3 20 58.4 19.9C58.7 19.7 59 19.4 59.3 19C59.5 18.7 59.7 18.5 59.9 18.3C60 18.1 60.1 18.1 60.1 18C60.3 17.9 60.4 17.7 60.7 17.5C61 17.3 61.2 17 61.4 16.7C61.5 16.5 61.6 16.3 61.7 16.1C61.8 15.9 62 15.6 62.2 15.2C62.3 15.1 62.5 14.9 62.8 14.6C62.8 14.5 62.9 14.3 62.9 14.1C63 13.9 63 13.7 63.1 13.4C63.3 13.1 63.5 12.7 63.8 12.2C63.8 12.1 63.8 12 63.9 11.7C63.9 11.6 64 11.5 64.1 11.4C64.2 11.3 64.2 11.2 64.3 11C64.3 10.9 64.4 10.7 64.4 10.5C64.5 10.3 64.5 10.1 64.6 9.8C64.8 9.6 64.9 9.4 65.2 9C65.2 8.9 65.2 8.5 65.2 7.9C65.2 7.7 65.2 7.4 65.3 7.2C65 7.6 65 7.5 65 7.4C65 7.3 65 7.1 65 6.7C65 6.5 65 6.3 65 6.2H65.1C65.1 6.2 65.2 6.1 65.3 6.1C65.4 6 65.5 5.9 65.7 5.7C66 5.4 66.2 5.2 66.2 5.1C66.2 5 66.2 5 66.3 4.9C66.2 4.8 66.5 4.7 66.9 4.5Z" fill="black"/>
<path d="M74.4 13.5C74.4 13.5 74.5 13.5 74.6 13.5C74.7 13.5 74.7 13.5 74.8 13.5C75 13.5 75.2 13.6 75.3 13.6C75.5 13.6 75.7 13.8 75.7 14.2C75.7 14.3 75.7 14.5 75.7 14.6C75.7 14.7 75.7 14.9 75.7 15L75.8 15.2C75.8 15.3 75.8 15.4 75.8 15.6C75.8 15.7 75.8 15.8 75.8 16C75.8 16.1 75.8 16.3 75.7 16.4C75.6 16.8 75.6 17.1 75.6 17.3C75.6 17.6 75.6 17.8 75.5 17.9C75.4 18 75.4 18.1 75.3 18.2C75.2 18.3 75.2 18.4 75.1 18.5C75.1 18.7 75 18.9 74.8 19.2L74.7 19.3C74.7 19.3 74.6 19.4 74.5 19.5C74.5 19.6 74.5 19.7 74.4 19.8C74.4 19.9 74.3 20 74.3 20.2C74.2 20.3 74.1 20.3 74 20.4C73.9 20.5 73.8 20.6 73.6 20.8C72.6 22.2 71.7 22.9 70.9 22.9C70.6 22.9 70.3 22.7 69.8 22.3C69.3 21.9 69.1 21.6 69.1 21.4C69.1 21.3 69.2 21.1 69.3 20.6C69.4 20.1 69.5 19.9 69.5 19.8C69.5 19.7 69.6 19.6 69.7 19.5C69.7 19.4 69.7 19.4 69.7 19.3C69.7 19.2 69.7 19.1 69.7 19C69.8 18.9 69.9 18.8 70 18.5C70 18.4 70 18.4 70.1 18.3C70.1 18.2 70.1 18.1 70.2 18C70.2 17.9 70.3 17.8 70.3 17.7C70.4 17.6 70.4 17.5 70.5 17.4C70.5 17.3 70.6 17.1 70.6 16.9C70.7 16.8 70.7 16.8 70.8 16.7C70.9 16.6 71 16.5 71.1 16.4C71.2 16.2 71.4 16 71.5 15.8C71.7 15.6 71.9 15.3 72.1 15.1C72.2 15 72.4 14.9 72.7 14.7C72.8 14.5 72.9 14.3 73 14.2C73.1 14.1 73.1 14 73.1 14C73.8 13.6 74.1 13.5 74.4 13.5ZM73.2 16.2C73.1 16.3 73.1 16.4 73 16.6C72.9 16.7 72.9 16.9 72.8 17C72.7 17.1 72.5 17.2 72.4 17.4C72.2 17.6 72.1 17.8 71.8 18.1L71.7 18.2C71.7 18.4 71.6 18.5 71.6 18.7C71.6 18.9 71.5 19.1 71.5 19.4C71.4 19.5 71.4 19.6 71.3 19.8C71.2 20 71.2 20 71.1 20.2C70.9 20.6 70.8 20.8 70.8 20.9C70.8 21 70.9 21.2 71.1 21.5C71.3 21.7 71.5 21.9 71.6 21.9C72.2 21.9 72.5 21.8 72.7 21.5C72.7 21.4 72.8 21.3 72.8 21.2C72.8 21.1 72.9 21 72.9 20.9L73 20.8C73.1 20.8 73.1 20.7 73.2 20.7C73.4 20.5 73.6 20.3 73.6 19.8C73.7 19.3 73.7 18.9 73.8 18.8C73.9 18.6 74 18.4 74.2 18.2C74.3 18.1 74.4 17.8 74.4 17.2V16.5C74.4 16.3 74.2 16.2 74 16.2C73.6 15.9 73.4 16 73.2 16.2Z" fill="black"/>
<path d="M83.9 13.5C84.2 13.5 84.3 13.7 84.3 14C84.3 14.1 84.3 14.2 84.3 14.3C84.3 14.4 84.3 14.5 84.2 14.7V14.8L84.3 14.9C84.3 15.3 84.3 15.7 84 16C83.9 16 83.9 16.1 83.8 16.1L83.5 16.4C83.5 16.5 83.4 16.5 83.3 16.6C83.2 16.7 83.2 16.7 83.1 16.8C83 16.9 82.9 17 82.8 17C82.8 17.1 82.7 17.2 82.7 17.2C82.6 17.3 82.6 17.4 82.5 17.5C82.4 17.6 82.4 17.7 82.3 17.8C82.2 17.9 82.1 18 82.1 18.1C82 18.1 81.9 18.2 81.7 18.4C81.7 18.4 81.6 18.5 81.6 18.6C81.6 18.7 81.5 18.7 81.5 18.8L81 19.3C81 19.4 80.9 19.4 80.9 19.5C80.9 19.5 80.8 19.6 80.8 19.7L80.7 19.8C80.7 19.8 80.6 19.9 80.6 20C80.5 20 80.4 20.1 80.3 20.3L80.1 20.5C80 20.7 79.7 21 79.4 21.4V21.8C79.4 21.8 79.3 21.9 79.2 21.9C79.1 22 79.1 22 79 22C79 22.1 78.9 22.2 78.9 22.2C78.9 22.3 78.8 22.4 78.8 22.4L78.1 22.9H77.8L77.7 22.8C77.7 22.8 77.7 22.8 77.7 22.7C77.7 22.6 77.8 22.5 77.8 22.3C77.9 22.1 77.9 21.9 78 21.7L78.1 21.6C78.1 21.5 78.2 21.4 78.2 21.3C78.2 21.2 78.3 21.1 78.3 21C78.3 20.9 78.4 20.8 78.4 20.6C78.4 20.5 78.5 20.4 78.5 20.2C78.6 20.1 78.6 19.9 78.5 19.6C78.5 19.5 78.5 19.4 78.5 19.3V19.1C78.5 19.1 78.5 19 78.4 18.8C78.4 18.5 78.4 18.3 78.4 18C78.4 17.8 78.4 17.6 78.5 17.4C78.5 17.3 78.6 17.2 78.6 17.1C78.6 17 78.7 16.9 78.7 16.7C78.7 16.6 78.8 16.4 78.8 16.3C78.8 16.2 78.9 16 79 15.8V15.6C78.8 15.5 78.7 15.5 78.7 15.5C78.7 15.5 78.6 15.5 78.3 15.6L78 16C78 16 77.9 16.2 77.7 16.5C77.6 16.5 77.5 16.8 77.4 17.1V17.2C76.9 17.4 76.7 17.5 76.7 17.5H76.4C76.4 17.1 76.4 16.8 76.5 16.5C76.6 16.2 76.7 15.9 77 15.6C77.3 15.2 77.5 15 77.5 14.8L78.6 14.5L78.7 14.4C78.7 14.4 78.8 14.4 79 14.4H79.2C79.3 14.4 79.4 14.4 79.4 14.4L79.6 14.3C79.6 14.3 79.7 14.3 79.9 14.3C80 14.3 80.1 14.3 80.2 14.3C80.3 14.3 80.4 14.3 80.6 14.4C80.7 14.4 80.8 14.5 80.9 14.5C80.9 14.5 80.9 14.6 80.9 14.8V15C80.7 15.1 80.6 15.3 80.4 15.4L79.9 15.9V16.1C79.9 16.1 79.9 16.2 79.9 16.3V16.4L79.8 16.5V16.8C79.8 16.9 79.8 16.9 79.8 17V17.1C79.8 17.1 79.8 17.2 79.7 17.2C79.7 17.3 79.6 17.4 79.6 17.5C79.6 17.6 79.6 17.9 79.6 18.3V18.4C79.6 18.4 79.6 18.5 79.6 18.6C79.6 18.7 79.6 18.8 79.6 18.9C79.6 19 79.6 19.1 79.6 19.2C79.6 19.7 79.6 20 79.7 20C79.9 20 80.2 19.7 80.6 19.1C80.8 18.8 80.9 18.6 81 18.4C81.1 18.2 81.2 18.1 81.2 17.9C81.2 17.7 81.4 17.5 81.8 17.3C82.2 17 82.4 16.6 82.6 16.1C82.6 16.1 82.6 16 82.6 15.9C82.6 15.7 82.6 15.6 82.5 15.5C82.5 15.4 82.4 15.3 82.3 15.1L82.1 14.8C82.1 14.7 82 14.7 82 14.6C82 14.5 82 14.5 82 14.4C82.1 14.4 82.2 14.3 82.4 14.3C82.5 14.3 82.6 14.2 82.7 14.2H82.8L83 14C83.1 13.9 83.2 13.8 83.4 13.7C83.6 13.6 83.8 13.5 83.9 13.5Z" fill="black"/>
<path d="M89.1 13.7C89.2 13.7 89.3 13.8 89.3 13.8C89.4 13.8 89.4 13.8 89.5 13.8C89.6 13.8 89.7 13.9 89.7 13.9C89.7 13.9 89.8 14 89.8 14.1C89.8 14.1 89.8 14.2 89.8 14.3C89.8 14.4 89.8 14.4 89.8 14.5C89.8 15 89.8 15.3 89.7 15.4C89.6 15.5 89.6 15.5 89.6 15.6C89.6 15.7 89.5 15.7 89.5 15.8L89.4 15.9V16C89.4 16.2 89.4 16.5 89.2 16.7C89.1 16.9 88.9 17.2 88.7 17.3V17.4C88.7 17.4 88.7 17.5 88.6 17.6C88.6 17.7 88.5 17.8 88.5 17.9C88.5 17.9 88.5 17.9 88.4 18C88.4 18.1 88.3 18.1 88.1 18.2C88 18.3 87.9 18.4 87.9 18.5V18.7C87.9 18.8 88 18.9 88 18.9C88 19 88 19.1 87.9 19.2V19.3C87.9 19.3 87.9 19.4 87.8 19.5C87.8 19.6 87.7 19.6 87.7 19.7C87.7 19.7 87.7 19.8 87.7 19.9C87.7 20 87.7 20 87.7 20V20.1C87.7 20.3 87.8 20.5 88 20.7C88.2 20.9 88.4 21 88.6 21C88.7 21 88.8 21 88.9 20.9C89 20.9 89 20.8 89 20.8H89.1C89.1 20.8 89.2 20.9 89.4 21.1C89.4 21.2 89.4 21.4 89.3 21.7C89.3 21.8 89.2 21.8 89 21.9C88.9 21.9 88.9 22 88.8 22C88.7 22 88.7 22 88.7 22C88.7 22 88.7 22.1 88.6 22.1C88.6 22.1 88.5 22.2 88.5 22.3C88.4 22.4 88.3 22.5 88.2 22.5C87.9 22.7 87.6 22.8 87.2 22.8C86.9 22.8 86.6 22.7 86.3 22.5C86 22.3 85.8 22.2 85.6 22.2C85.3 22.2 84.8 22.3 84.2 22.5L84.1 22.6H83.9C82.9 22.7 82.3 22.3 82.2 21.6C82.3 21.5 82.3 21.2 82.4 20.8C82.4 20.6 82.4 20.4 82.6 20.2C82.8 19.9 82.9 19.7 82.9 19.7C82.9 19.6 82.9 19.5 83 19.4C83 19.3 83.1 19.2 83.1 19C83.1 18.9 83.2 18.7 83.2 18.6C83.3 18.5 83.3 18.3 83.4 18.1L83.7 17.8C83.7 17.7 83.8 17.7 83.8 17.6C83.8 17.6 83.8 17.5 83.9 17.4V17.2C83.9 17.2 84 17.1 84.1 17L84.4 16.7C84.4 16.7 84.5 16.7 84.5 16.6C84.6 16.6 84.6 16.5 84.6 16.5C84.8 16.2 85 15.8 85.4 15.5C85.8 15.1 86.2 14.9 86.5 14.9C86.5 14.9 86.7 14.9 87 14.8C87.3 14.7 87.4 14.7 87.5 14.7C87.6 14.6 87.7 14.6 87.8 14.5C87.9 14.4 88 14.3 88.1 14.3C88.6 14.2 88.8 14 89.1 13.7ZM84.8 19.4V19.6C84.7 19.6 84.7 19.7 84.6 19.7C84.5 19.7 84.5 19.8 84.4 19.9C84.3 20 84.2 20.2 84.1 20.3C84 20.4 84 20.5 83.9 20.5C83.9 20.6 83.8 20.7 83.8 20.7C83.8 20.9 83.7 21 83.8 21.1C83.8 21.1 83.8 21.2 83.9 21.3L84.3 21.7C84.4 21.7 84.5 21.8 84.5 21.8C85 21.8 85.3 21.7 85.4 21.5L85.5 21.4C85.5 21.4 85.5 21.3 85.6 21.3L85.7 21.1C85.8 21.1 85.9 21 85.9 21C86 21 86.1 20.9 86.1 20.9C86.3 20.8 86.4 20.7 86.4 20.5C86.4 20.4 86.5 20.3 86.5 20.2C86.5 20.1 86.5 20.1 86.5 20C86.5 19.9 86.5 19.9 86.5 19.8V19.4C86.5 19.3 86.5 19.2 86.5 19.1C86.5 19.1 86.5 19 86.6 18.9C86.7 18.8 86.8 18.6 86.9 18.4C87 18.1 87.1 17.8 87.1 17.4C87.1 17 86.9 16.8 86.6 16.8C86.3 16.8 85.9 17.2 85.4 17.9C85 18.5 84.7 19 84.8 19.4Z" fill="black"/>
</svg>
